<svg xmlns="http://www.w3.org/2000/svg" width="500" height="500" viewBox="0 0 500 500" version="1.1"><path d="M 281.332 203.936 L 277.164 205.829 273.265 209.846 L 269.366 213.864 261.433 225.913 L 253.500 237.962 252.880 237.981 L 252.260 238 246.576 229.034 L 240.893 220.069 241.982 218.034 L 243.070 216 232.785 216.022 L 222.500 216.044 224.662 217.772 L 226.824 219.500 234.444 231.252 L 242.064 243.004 242.621 244.455 L 243.178 245.906 233.924 258.703 L 224.671 271.500 220.376 277.010 L 216.082 282.521 212.948 284.372 L 209.815 286.223 207.157 287.090 L 204.500 287.958 209 287.383 L 213.500 286.808 217.584 284.459 L 221.667 282.111 225.086 278.305 L 228.504 274.500 237.002 262.283 L 245.500 250.067 246.210 250.283 L 246.920 250.500 252.960 259.929 L 259 269.357 259 271.129 L 259 272.901 257.250 273.920 L 255.500 274.939 268 274.947 L 280.500 274.954 277.500 273.472 L 274.500 271.989 267.400 261.203 L 260.300 250.417 257.983 246.392 L 255.667 242.368 265.955 227.434 L 276.242 212.500 279.371 209.128 L 282.500 205.755 285.500 203.881 L 288.500 202.007 287 202.026 L 285.500 202.044 281.332 203.936 M 360.500 214.896 L 356.500 216.748 353.814 219.624 L 351.127 222.500 350.064 225.315 L 349 228.130 349.004 231.815 L 349.007 235.500 350.965 238.710 L 352.922 241.919 357.043 244.022 L 361.165 246.125 370.197 248.096 L 379.230 250.067 381.988 251.494 L 384.746 252.920 385.307 255.067 L 385.869 257.215 384.977 259.559 L 384.086 261.904 381.093 263.452 L 378.099 265 373.800 264.998 L 369.500 264.997 366 263.248 L 362.500 261.500 360.500 257.704 L 358.500 253.909 353.500 254.556 L 348.500 255.204 347.682 255.970 L 346.863 256.737 348.485 260.618 L 350.106 264.500 352.671 267.177 L 355.235 269.855 360.213 271.996 L 365.191 274.138 372.405 274.166 L 379.619 274.194 383.753 272.956 L 387.887 271.717 391.568 268.683 L 395.248 265.650 396.624 262.357 L 398 259.064 398 254.982 L 398 250.901 396.494 247.989 L 394.989 245.078 390.685 242.555 L 386.381 240.033 376.485 237.997 L 366.589 235.961 364.295 234.457 L 362 232.954 362 229.632 L 362 226.310 364.105 224.405 L 366.210 222.500 371.524 222.500 L 376.839 222.500 379.419 224.924 L 382 227.349 382 228.615 L 382 229.882 382.910 230.444 L 383.819 231.006 388.910 229.831 L 394 228.657 394 227.060 L 394 225.464 391.537 221.840 L 389.075 218.216 383.841 215.608 L 378.607 213 371.554 213.022 L 364.500 213.044 360.500 214.896 M 104 244 L 104 273 110 273 L 116 273 116 252 L 116 231 116.787 231 L 117.574 231 129.537 251.963 L 141.500 272.927 149.250 272.963 L 157 273 157 244 L 157 215 151 215 L 145 215 145 236.214 L 145 257.429 143.645 255.964 L 142.290 254.500 131.071 234.750 L 119.852 215 111.926 215 L 104 215 104 244 M 167 244 L 167 273 187.500 273 L 208 273 208 267.500 L 208 262 194 262 L 180 262 180 254.500 L 180 247 192 247 L 204 247 204 242.500 L 204 238 192 238 L 180 238 180 231.500 L 180 225 193.500 225 L 207 225 207 220 L 207 215 187 215 L 167 215 167 244 M 288 233.818 L 288 252.637 289.602 258.068 L 291.205 263.500 295.388 267.527 L 299.570 271.555 304.022 272.888 L 308.473 274.222 314.486 274.152 L 320.500 274.081 323.898 273.068 L 327.297 272.055 330.489 269.867 L 333.680 267.680 335.867 264.489 L 338.055 261.297 339.027 257.905 L 340 254.513 340 234.757 L 340 215 333.500 215 L 327 215 327 234.032 L 327 253.064 325.606 256.401 L 324.211 259.739 321.883 261.369 L 319.555 263 314.354 263 L 309.153 263 306.106 260.436 L 303.059 257.871 302.035 254.186 L 301.011 250.500 301.006 232.750 L 301 215 294.500 215 L 288 215 288 233.818" stroke="none" fill="#fffcfc" fill-rule="evenodd"/><path d="" stroke="none" fill="#fcfcfc" fill-rule="evenodd"/></svg>